<svg xmlns="http://www.w3.org/2000/svg" xmlns:xlink="http://www.w3.org/1999/xlink" width="1029" height="949" fill="none" xmlns:v="https://vecta.io/nano"><g clip-path="url(#A)"><path d="M778.847 102.825c101.324 56.214 207.506 121.45 239.433 212.364 31.92 90.914-11.8 208.2-65.239 305.36-54.132 97.16-117.98 175.582-197.096 227.632s-173.5 79.116-276.906 92.996c-104.1 13.88-217.916 14.574-301.196-36.782-83.28-50.662-135.33-153.374-161.008-258.862-24.984-105.488-23.596-212.364 13.88-301.89s111.734-161.008 194.32-223.468C307.621 57.021 397.841 3.583 490.837.113c92.996-2.776 187.38 45.804 288.01 102.712z" fill="#fff"/><g fill-rule="evenodd"><path d="M505.318 217.758l-9.283 24.574-5.949 15.746c-.704 1.861-1.095 3.77-2.455 5.062-3.206 3.042-8.96 4.978-12.813 7.118l-7.744 4.302c-1.331.74-4.282 1.669-5.215 2.897-1.026 1.353-.541 3.838-.541 5.709v16.154 30.438l40-5-53.291 61.49c-4.378 5.051-9.693 9.913-12.955 15.79l-20.59 37.664-19.164 35.056 57.469-2.446c14.879-.633 30.164.319 44.5-3.898l35.453-10.427c1.572-.463 6.468-.986 7.582-2.251 1.043-1.185 1.021-5.662 1.316-7.178 5.578-28.67 12.679-60.264 28.959-84.943 11.672-17.691 27.422-33.18 41.846-48.607l16.788-18.174c1.391-1.589 3.4-3.392 4.32-5.322.594-1.247 1.424-3.623 1.055-4.73-.16-.48-3.871-2.202-4.403-2.544l-11.225-7.341-31.544-20.631c-8.231-5.31-16.439-10.94-25.121-15.503-8.999-4.73-18.91-8.059-28.345-11.796l-28.65-11.209z" fill="#5eead4"/><g fill="#000"><path d="M828.91 655.342c-4.578 4.314-12.915 10.104-19.505 7.471-3.31-1.322-6.137-4.225-9.152-6.097-3.542-2.2-6.872-4.401-9.875-7.333-5.991-5.852-10.527-14.401-17.603-18.982-2.378-1.54-7.02-1.87-8.67-4.329-.739-1.103-.808-2.776-.672-4.051.296-2.746 1.779-2.584-.699-4.6h3.849c.074-1.487-1.41-1.61-2.516-1.418.514-2.357 1.038-11.58-3.258-7.4-3.724 3.623-1.861 9.634-4.498 13.558-2.019 3.005-7.377.572-8.1-2.734-.325-1.485 1.311-3.804 1.506-5.26.428-3.229-1.014-6.021-3.108-8.466-4.594 3.061-1.99 9.396-4.608 13.418-2.369 3.639-7.645 1.941-11.252 1.301-4.324-.768-9.213.009-13.35-1.012-6.247-1.542-3.914-8.876-4.532-13.61-.663-5.071-5.788-12.109-4.248-17.225 1.654-5.493 11.323-6.68 15.945-8.013 10.563-3.047 25.63-3.633 33.483-12.163 6.246 6.966 11.27 14.942 17.821 21.648 7.076 7.243 14.634 13.93 21.427 21.465 7.07 7.842 14.368 15.533 21.181 23.602 2.973 3.52 5.583 7.313 8.658 10.749 2.734 3.054 5.616 5.864 1.776 9.481zM514.947 519.869c3.246-1.726 3.659-.644 3.658 2.911-.934-1.707-1.861-2.164-3.658-2.911zm-27.52 69.106v-6.266c3.129-.082 1.205 5.278 0 6.266zm-.765 9.332c0-2.775-.075-5.417.725-8.116.42 2.941 1.222 5.487-.725 8.116zm13.454 190.622c2.874.269 7.303-1.711 9.72.544 2.483 2.317 2.284 9.061 2.872 12.191.972 5.173 1.833 10.363 2.652 15.561.537 3.408 1.201 6.869-2.652 8.173-5.694 1.926-13.83-.823-19.765-1.073l-35.177-1.417c-11.373-.23-22.772-.048-34.093 1.135-5.114.534-10.115 1.478-15.177 2.332-2.668.451-9.817 2.336-12.227.087-4.534-4.234 3.004-14.119 6.246-16.911 6.017-5.181 14.574-8.917 22.119-11.167 4.032-1.203 10.754-4.58 13.93-.803 2.437 2.897 2.34 6.764 5.832 8.959 8.091 5.086 3.357-9.503-1.699-11.299 3.395-7.946 9.866 3.273 12.55 5.968.955.959 4.061 4.121 5.41 2.531 1.01-1.19-1.007-5.454-1.381-6.614-.568-1.762-2.005-4.442-1.592-6.353.748-3.458 5.598-4.4 8.503-4.688 4.505-.446 8.924.982 13.378 1.459 6.83.732 13.713.743 20.551 1.385zm-45.232-325.711c-8.893.708-17.842-.652-26.714.461-8.394 1.054-16.304 4.136-24.217 6.967 11.764-27.591 26.984-52.708 45.535-76.237 9.238-11.719 19.174-23.357 29.156-34.448 4.645-5.16 9.449-10.149 14.245-15.164 4.278-4.474 7.343-12.072 12.477-15.413 4.382-2.852 12.04-.818 16.896-.641 5.489.2 12.169.699 17.522-1.128 3.879-1.324 4.946-4.857.09-4.974-5.727-.139-11.36.458-17.162-.079-15.033-1.389-29.524-3.672-44.679-2.377-3.472.296-8.042 1.775-11.449 1.331-2.45-.321-.839.911-2.542-1.055-.652-.752-1.438-2.52-1.631-3.519-1.085-5.611 1.996-13.629 2.733-19.278.682-5.228.078-10.974 1.354-16.065 1.162-4.633 4.704-5.251 9.066-5.746 11.933-1.355 24.111-2.076 36.098-3.097 27.356-2.33 55.581-5.845 82.751-.087 9.811 2.079 21.774 5.294 30.538 10.442 2.741 1.609 5.506 3.504 4.509 6.838-1.034 3.461-6.104 7.117-8.615 9.397-18.559 16.848-36.484 34.033-49.521 55.651-16.626 27.567-26.167 57.34-31.765 88.929-1.204 6.796-2.322 10.353-9.314 12.309-7.506 2.101-14.751 3.466-22.534 4.105-17.594 1.445-35.242 1.475-52.827 2.878zm5.959-182.56c-1.348 10.035-3.173 20.048-3.353 30.162-.068 3.82-.43 5.734-4.492 6.586-4.789 1.004-9.658 1.752-14.469 2.794-23.219 5.032-45.999 11.212-68.715 18.168-22.077 6.762-43.791 14.369-66.364 19.378-9.71 2.155-21.072 3.607-29.916 8.378-9.514 5.134-8.262 13.551-9.116 22.796-1.141 12.352-4.804 24.312-6.092 36.659-.616 5.9-1.177 11.835-1.084 17.772.079 5.061.804 10.657-2.598 14.916-6.825-9.124-10.06-20.6-11.405-31.783-.654-5.436-.395-10.916-.582-16.377-.151-4.397-.053-11.391-2.917-15.063-6.226-7.98-14.323 24-15.093 27.415l-3.653 17.293c-.572 2.548-1.306 11.811-4.72 12.734-7.075 1.914-5.522-17.967-5.634-20.994-.224-6.11-.376-12.227-.233-18.342.104-4.414.958-9.204.451-13.62-1.245-10.843-7.342.581-9.056 4.617-4.331 10.189-6.29 21.095-10.174 31.447-.646 1.722-2.164 7.519-4.569 7.627-2.676.119-2.655-5.868-2.808-7.617-.888-10.139-3.887-20.207-2.982-30.451.914-10.344 4.54-20.978 9.671-29.975 10.848-19.022 30.438-29.944 49.202-39.893 21.474-11.384 44.145-20.378 67.3-27.705 27.848-8.812 56.442-15.942 85.208-21.016 14.635-2.581 29.496-4.427 44.281-5.907 5.196-.52 10.394-.824 15.523-1.813 1.936-.374 8.921-2.151 8.389 1.814zm14.959-32.475c-7.337.058-14.832-3.499-21.98-4.969-8.51-1.752-16.821-4.287-25.316-6.116l-49.899-10.733-21.652-4.679c-7.689-1.826-15.996-3.862-23.866-1.895-11.929 2.982-16.968 16.033-21.348 26.218-3.094 7.194-5.518 15.213-10.343 21.473-1.718 2.232-4.16 4.894-7.275 4.171-5.787-1.342-4.868-9-4.131-13.233 1.068-6.143 2.581-12.214 3.792-18.329.488-2.468 4.27-18.621-2.482-16.12-5.009 1.855-7.659 14.073-9.555 18.437a198.24 198.24 0 0 1-4.483 9.628c-2.11 4.219-8.13 18.316-14.795 16.498-9.538-2.602-.389-27.677 1.236-32.962.892-2.901 10.587-24.902 2.404-23.104-3.485.767-6.88 7.24-8.657 9.923-3.151 4.759-6.292 9.552-9.258 14.428-3.051 5.015-4.609 10.723-7.635 15.665-1.592 2.601-4.841 6.067-8.013 3.659-4.945-3.751-2.014-16.799-1.148-21.733 1.611-9.173 5.613-18.577 11.104-26.076 8.251-11.268 23.82-14.909 36.912-17.098 16.899-2.826 34.033-2.053 51.003-.381 19.085 1.881 37.879 3.895 56.691 7.741 18.959 3.876 37.928 7.721 56.595 12.847 8.794 2.415 17.714 4.556 26.383 7.391 9.216 3.013 18.21 6.763 27.683 8.934l-9.997 24.946c-3.189-3.155-7.542-4.567-11.97-4.531zm163.323 22.913c2.922-1.598 6.15-2.352 7.216-5.884.943-3.121-.668-6.657-1.438-9.653-2.154-8.388-2.721-17.077-.815-25.564 1.822 2.781 8.642 13.478 12.79 7.002 2.502-3.906-4.202-9.525-6.159-12.271 4.294-2.65 10.427-9.762 15.375-5.473 3.198 2.773 4.552 5.443 8.861 6.791 5.231 1.637 10.156 1.262 15.498.81 3.74-.316 4.641-.815 6.102 2.065 1.147 2.264 1.74 5.066 2.41 7.497 1.32 4.793 4.377 14.237.757 18.727-3.171 3.933-15.477.561-17.186 5.638-.932 2.769 3.516 2.868 5.216 4.238 2.105 1.696 3.846 4.395 4.99 6.806.847 1.783 2.135 4.729.693 6.552-1.992 2.522-5.684.609-7.29-1.224-2.132-2.435-2.824-5.764-4.603-8.416-3.265-4.866-3.46-.995-4.349 2.499-.923 3.63-3.107 3.38-6.452 3.846-5.869.819-11.8 1.974-17.513 3.547-2.928.806-5.766 1.833-8.555 3.033-1.797.772-4.912 3.111-6.862 3.134-3.613.04-6.118-6.003-7.983-8.524l9.297-5.176zm194.029 370.023c-9.024-10.832-16.839-22.6-25.742-33.527-8.781-10.777-18.94-20.2-28.795-29.961-4.651-4.607-9.107-9.661-14.241-13.743-3.83-3.046-6.777-3.093-11.384-1.744-13.09 3.834-26.419 8.449-38.807 14.17-11.535 5.328-22.042 12.169-34.552 15.14-12.769 3.033-26.046 4.007-39.133 3.255-13.424-.771-26.085-3.564-38.851-7.669-12.09-3.888-24.696-7.283-35.036-14.989-10.84-8.078-19.215-19.697-26.975-30.625-3.929-5.532-7.829-11.342-10.476-17.612-2.297-5.441-3.798-11.863-7.92-16.298-1.011 1.433-2.269 2.662-2.783 4.345-.234.765 1.144.741 1.003 1.349-.267 1.145-1.791 2.313-2.677 2.936-3.183 2.24-3.202.457-2.367 4.646.486 2.442-.434 7.951-4.416 6.151 1.466 1.755-.863 3.97-1.624 5.416-.523-.601-1.174-.81-1.952-.629 1.456 2.9.596 2.977-.815 5.28-.258.421-1.171 2.624-1.04 2.438-1.442 2.054-3.108 2.571-3.949 5.129-.691 2.101-.514 4.411-1.284 6.509l-2.793-3.86c.19 1.012.57 2.51 1.012 3.428.278.574 1.47 1.914 1.454 2.227-.065 1.17-1.525.889-1.941 1.898-.781 1.893.348 2.172-.078 4.019-.488 2.12-1.798 1.272-2.421 3.079-.118.343.802 1.693.656 2.433-.205 1.046-1.153 1.631-1.488 2.561-.852 2.366-.542 4.098-1.725 6.367-.458.88-1.125 1.466-1.448 2.466-.283.88.326 2.753-.22 3.541-2.638 3.799-2.267-2.745-2.067-4.368 1.679-13.627 7.066-27.691 11.996-40.428 2.45-6.328 4.835-12.854 7.906-18.915 1.236-2.441 2.663-4.96 4.706-6.827 2.584-2.362 6.25-3.307 8.59-5.945-.369.416 2.537-2.334 2.072-1.43.416-.808-.31-1.902-.052-2.684.321-.971.928-1.175 1.604-2.025 1.215-1.526 2.658-2.286.75-4.23 2.832-.626 4.186-1.545 4.752-4.578.413-2.219-.421-2.074 1.035-3.553 1.461-1.486 2.201-.326 3.122-2.899 1.101-3.079 1.832-7.266 2.492-10.488.576-2.813-.822-6.95 1.549-8.936 3.003-2.515 5.69-1.45 5.152-6.508-.525-4.931 1.007-7.918 2.547-12.584 3.073-9.315 4.261-19.15 6.955-28.576 5.751-20.116 15.91-38.253 26.834-55.96 10.094-16.362 24.206-30.302 37.833-43.727 3.731-3.677 7.421-7.407 10.771-11.438 2.886-3.471 4.204-8.197 6.978-11.492 1.685-2.001 4.822-2.857 7.175-3.918 3.924-1.77 8.6-4.079 13.029-3.721-1.76 5.933-2.334 12.866 2.86 17.315 6.301 5.397 12.012-.21 17.788-3.287 10.528-5.609 25.585-.46 34.765-8.867 2.187-2.002 2.797-5.201 5.069-7.071 1.668-1.371 4.041-1.719 5.919-2.741 5.705-3.105 8.474-8.789 6.253-15.068-2.03-5.74-5.185-7.731 1.837-10.64 5.7-2.36 7.867-5.916 5.287-12.247-2.46-6.036-6.966-6.731-11.23-10.681-4.13-3.826.614-8.279 3.708-11.151 3.99-3.705 4.753-7.044.127-10.897-4.844-4.034-11.759-3.893-17.406-1.898-6.386 2.255-10.593 6.004-13.295 12.079-2.752 6.185-9.573 4.459-15.097 2.735-5.283-1.648-6.658-5.204-10.127-9.033-3.858-4.259-11.721-.617-16.271 1.329-11.208 4.79-22.346 12.35-22.791 25.741-.265 7.985 3.112 14.772 4.868 22.267 1.606 6.854-9.405 6.314-11.312 12.944-20.341-10.768-42.994-14.063-65.732-14.796-24.167-.78-48.682-1.405-72.643 2.407 5.562-9.69 8.499-20.316 13.338-30.271 1.393-2.866 1.993-2.621 5.067-1.755l17.659 5.237c21.528 6.258 42.633 13.798 63.449 22.056 2.023.803 6.54 3.032 8.313.608 2.046-2.795-2.687-6.241-4.603-7.647-8.382-6.149-18.769-9.881-28.156-14.195-20.523-9.429-43.249-13.905-64.663-20.908-46.229-15.121-94.055-26.605-142.097-34.19-11.724-1.851-23.573-2.122-35.348-3.496a132.53 132.53 0 0 0-31.308.068c-19.262 2.323-41.593 7.335-52.472 24.967-9.821 15.92-16.377 33.819-13.871 52.703.753 5.672 3.155 12.389 10.154 10.927 4.855-1.014 7.433-5.139 9.687-9.165 3.406-6.082 6.77-12.164 10.461-18.083 1.369 8.875-3.606 17.602-2.824 26.643.532 6.135 3.922 15.828 11.887 14.091 10.917-2.38 15.41-19.435 20.659-27.617.266 6.302-1.943 12.513-1.267 18.829.667 6.239 5.542 12.129 12.389 11.274 6.458-.806 10.655-7.725 13.398-12.934 3.817-7.249 6.559-15.021 10.287-22.318 3.494-6.84 7.633-14.983 15.975-16.268 7.445-1.148 15.977 1.509 23.331 2.605 20.399 3.04 40.387 8.216 60.563 12.398 21.633 4.483 43.777 7.206 64.743 14.44-7.372 10.034-26.664 7.866-37.646 8.943-16.596 1.628-33.405 2.853-49.907 5.255-16.298 2.372-32.255 6.583-48.426 9.64-16.086 3.041-32.144 6.087-47.709 11.273-28.899 9.629-58.28 21.815-83.742 38.616-11.847 7.818-22.371 16.753-29.689 29.093-7.365 12.417-10.904 26.458-12.254 40.741-.84 8.894.587 16.591 2.31 25.247 1.248 6.267 1.652 16.76 6.677 21.349 9.591 8.759 17.554-26.769 19.325-31.06 1.275 7.032-.81 46.648 14.579 43.426 6.868-1.437 8.426-10.864 9.565-16.542 2.078-10.351 3.939-20.91 7.493-30.879 2.281 13.432 3.232 27.426 8.146 40.255 3.264 8.52 12.577 23.638 19.07 9.052 4.87-10.939 3.199-23.494 3.783-35.108.647-12.87 4.342-25.284 5.65-38.028.507-4.937.048-10.501 5.009-13.195 4.259-2.312 10.487-3.065 15.137-4.356l41.344-11.396c13.714-4.06 27.238-8.803 40.769-13.432 12.941-4.427 26.154-6.944 39.252-10.735 7.447-2.156 14.804-4.411 22.355-6.211 3.514-.837 7.071-1.489 10.577-2.356 2.599-.642 6.023-3.065 8.695-3.022 2.75.045 3.784 2.373 6.937 2.556 3.395.196 6.847-.553 10.223-.812 8.225-.631 16.968-1.651 25.174-.511-4.932 5.85-11.593 9.894-17.431 14.74-6.733 5.589-13.249 11.624-19 18.224-11.572 13.28-22.509 27.317-32.67 41.704-10.023 14.193-18.093 29.724-25.109 45.592-3.496 7.907-6.89 15.987-9.305 24.298-.992 3.414-1.802 6.841-3.593 9.946-1.643 2.848-3.958 5.303-2.016 8.742 1.337-.837 2.538-1.877 3.747-2.882-1.397 9.841-4.412 19.361-5.962 29.172-1.528 9.666-1.466 19.607-1.367 29.369.208 20.444 1.728 40.425 5.875 60.478 4.194 20.277 9.582 40.4 16.376 59.961 6.54 18.834 13.103 38.585 22.232 56.336 9.75 18.96 21.349 38.894 35.462 54.943-9.219 3.776-20.951 3.07-30.713 4.591-10.204 1.59-19.031 4.591-27.727 10.237-8.798 5.714-13.574 13.07-14.79 23.488-.864 7.415-3.431 17.681 6.297 19.629 6.997 1.401 14.819-.9 21.83-1.469 12.264-.994 24.546-1.615 36.837-2.151l36.784-1.386 17.305-.476c2.584-.092 4.151-.132 6.468.615 1.832.591 1.698 1.818 3.738.301 3.29-2.447 2.613-10.162 2.521-13.554-.14-5.235-.636-10.53-1.657-15.666-.606-3.052-7.962-22.725-2.242-23.553-6.645-7.302-9.299-17.729-12.284-26.881-3.74-11.466-7.023-22.9-9.6-34.693-5.505-25.191-7.938-50.657-7.938-76.432 25.518 15.729 52.517 24.249 82.573 25.199 29.882.945 62.711-1.509 91.086-11.45 13.14-4.604 24.91-10.65 36.176-18.795 4.038-2.919 8.364-9.531 13.664-9.418 6.325.136 13.408 2.53 19.689 3.554 12.012 1.958 27.69 3.063 37.86 10.493 5.524 4.036 9.483 9.685 14.413 14.335 3.75 3.538 8.709 5.459 12.431 8.997 4.016 3.817 2.421 8.804 9.08 9.113 5.692.263 11.933-2.027 16.842-4.715 9.794-5.363 20.224-16.81 11.172-27.674zM603.379 485.378c-.651 1.553-6.73 1.03-6.863-.801-.198-2.736 7.994-1.898 6.863.801zm6.457-1.016c3.445.28 9.105 2.62 12.425 1.206 5.067-2.158-.254-5.47-2.972-6.46-2.766-1.007-6.886-.472-8.308-3.364-1.07-2.175 1.574-8.247-1.706-7.271-3.442 1.024-2.441 9.722-7.842 6.79-2.576-1.399-1.525-9.921-5.84-5.567-1.181 1.191-1.284 3.378-2.848 4.266-1.596.907-3.598-.038-5.283.041-4.461.209-5.882 4.382-1.362 6.037 1.673.613 7.979 1.361 4.159 4.095-2.407 1.722-7.754-1.892-9.821 1.106-2.841 4.118 4.769 4.211 6.813 5.443 3.464 2.086.603 6.959.879 10.429.423 5.302 3.503 4.194 4.622-.293.949-3.807-.227-9.287 5.512-7.774 9.346 2.464-5.197 14.329 1.649 17.365 4.365 1.936 4.983-8.529 5.322-10.331 1.255-6.651 4.991-5.099 10.651-4.895 6.612.238 8.208-4.653 1.206-6.054-2.234-.447-5.307.118-7.247-1.305-1.148-.841-2.726-3.684-.009-3.464zM365.711 701.656c-5.351-1.916-14.303-1.502-15.627 5.409-.554 2.893.525 5.953 2.523 8.055 2.317 2.437 6.007 2.663 5.81-1.581-.137-2.937-2.932-5.488 1.982-6.08 3.058-.368 7.581 1.919 7.733 5.297.344 7.614-12.836 8.211-17.693 6.894-9.64-2.612-7.021-12.709-.401-17.317 1.71-1.191 6.617-3.025 6.841-5.498.298-3.28-3.758-2.61-5.746-2.178-14.613 3.181-17.798 27.661-2.529 32.276 6.934 2.095 16.699-.068 20.878-6.348 3.918-5.888 3.971-16.157-3.771-18.929zM171.957 528.36l-13.703 6.597c-1.51-3.231-4.061-12.058-7.891-13.185-6.2-1.825-2.252 7.797-1.182 9.997.879 1.807 2.918 4.607 2.423 6.761-.664 2.902-4.758 3.93-6.901 5.427-5.303 3.706-5.261 11.489 2.419 8.191 4.346-1.867 9.727-7.044 13.058-1.166 1.538 2.712 5.182 17.864 8.988 7.955 2.355-6.135-8.98-12.509-3.392-17.699 1.799-1.67 3.905-1.811 5.702-2.771 4.34-2.319 1.893-6.604.479-10.107zm669.686-219.54c-2.723-.996-6.092-2.941-9.119-2.278-3.217.704-4.512 3.926-6.851 5.863-6.359 5.267-10.063-2.583-13.557-6.885-3.3-4.062-7.326-5.048-11.982-2.552-1.855.995-9.67 5.554-8.307 8.475.98 2.102 4.841.215 6.158-.244 2.859-.995 5.514-1.866 8.438-.415 5.485 2.72 6.908 10.179 13.544 11.342 6.862 1.203 7.087-5.327 11.984-7.785 3.283-1.647 5.57 1.269 8.737.688 3.018-.553 4.414-4.945.955-6.209zm-55.399 26.317c2.427.527 4.011-4.18 5.53-5.374 2.52-1.979 6.889-2.378 9.455-.386 5.011 3.888 3.284 12.282 10.419 14.47 6.377 1.956 9.381-6.443 14.749-8.534 3.121-1.216 6.547-2.012 5.329-6.375-.841-3.017-3.319-3.792-6.013-2.633-4.63 1.99-6.202 10.097-11.691 10.242-5.679.15-6.295-8.037-8.733-11.603-3.717-5.435-11.358-6.748-15.7-1.551-1.311 1.568-7.967 10.743-3.345 11.744zm-112.257-92.81c3.376 2.31 10.104 2.23 13.214-.635 3.165-2.915-1.06-3.363-3.638-3.274-1.983.069-5.695 1.052-4.565-2.373 1.003-3.039 6.516-1.492 6.976-4.828-4.149-.744-8.719-.476-11.788 2.785-2.219 2.357-3.359 6.162-.199 8.325z"/></g></g><g fill="#0b1719"><use xlink:href="#B"/><use xlink:href="#C"/><use xlink:href="#D"/><path d="M236.078 620.469h-12.844a2.14 2.14 0 1 1 0-4.281h12.844a2.14 2.14 0 1 1 0 4.281zm25.688 0h-12.844a2.14 2.14 0 1 1 0-4.281h12.844a2.14 2.14 0 1 1 0 4.281zm25.687 0h-12.844a2.14 2.14 0 1 1 0-4.281h12.844a2.14 2.14 0 1 1 0 4.281zm-25.687-12.844h-64.219a2.14 2.14 0 1 1 0-4.281h64.219a2.14 2.14 0 0 1 0 4.281z"/><use xlink:href="#B"/><use xlink:href="#C"/><use xlink:href="#D"/><path d="M236.078 620.469h-12.844a2.14 2.14 0 1 1 0-4.281h12.844a2.14 2.14 0 1 1 0 4.281zm25.688 0h-12.844a2.14 2.14 0 1 1 0-4.281h12.844a2.14 2.14 0 1 1 0 4.281zm25.687 0h-12.844a2.14 2.14 0 1 1 0-4.281h12.844a2.14 2.14 0 1 1 0 4.281zm-25.687-12.844h-64.219a2.14 2.14 0 1 1 0-4.281h64.219a2.14 2.14 0 0 1 0 4.281z"/></g><g fill="#000"><path d="M730.584 425.193v-18.2h4.854a2.96 2.96 0 0 0 2.958-2.959 2.96 2.96 0 0 0-2.958-2.958h-4.854V398.4a2.96 2.96 0 0 0-2.958-2.959 2.96 2.96 0 0 0-2.958 2.959v2.973c-6.786 1.375-11.911 7.386-11.911 14.572s5.125 13.197 11.911 14.573v18.2h-5.623a2.96 2.96 0 0 0-2.958 2.958 2.96 2.96 0 0 0 2.958 2.959h5.623v2.676a2.96 2.96 0 0 0 2.958 2.958 2.96 2.96 0 0 0 2.958-2.958v-2.973c6.786-1.376 11.91-7.386 11.91-14.572s-5.124-13.197-11.91-14.573zm-11.91-9.248c0-3.9 2.507-7.223 5.994-8.447v16.895c-3.487-1.225-5.994-4.548-5.994-8.448zm11.91 32.268v-16.895c3.487 1.225 5.994 4.548 5.994 8.448s-2.507 7.223-5.994 8.447zm75.533 34.986l-24.114-24.114 4.397-4.397c2.229-2.229 3.047-4.797 2.246-7.045-.75-2.103-2.774-3.526-5.599-3.96 1.465-5.13 2.206-10.438 2.206-15.828 0-15.393-5.995-29.864-16.879-40.748s-25.355-16.879-40.748-16.879c-31.775 0-57.626 25.851-57.626 57.627s25.851 57.627 57.626 57.627c6.41 0 12.668-1.042 18.655-3.094 1.02 3.15 3.383 4.327 5.354 4.327 1.249 0 3.18-.442 5.285-2.547l4.397-4.398 24.114 24.115a6.4 6.4 0 0 0 9.109-.001l11.577-11.576a6.45 6.45 0 0 0 0-9.109zm-130.2-55.344c0-28.513 23.197-51.71 51.709-51.71 13.812 0 26.798 5.379 36.564 15.145a51.37 51.37 0 0 1 15.146 36.565 51.66 51.66 0 0 1-2.276 15.209l-9.831-.992c1.637-4.542 2.467-9.307 2.467-14.217 0-23.198-18.872-42.07-42.07-42.07s-42.07 18.872-42.07 42.07 18.873 42.07 42.07 42.07c5.805 0 11.542-1.206 16.822-3.507l1.006 9.986c-5.698 2.096-11.685 3.161-17.828 3.161-28.512 0-51.709-23.197-51.709-51.71zm69.148 15.582c-1.702 1.882-2.489 4.411-2.215 7.12l.969 9.624c-5 2.507-10.558 3.828-16.193 3.828-19.935 0-36.153-16.219-36.153-36.154s16.218-36.154 36.153-36.154 36.154 16.219 36.154 36.154c0 4.724-.89 9.29-2.648 13.603l-8.343-.841a10.39 10.39 0 0 0-1.039-.053c-2.636 0-5.01 1.021-6.685 2.873zm6.767 37.474l-3.096-30.947c-.103-1.025.152-1.933.717-2.559.63-.697 1.603-1.015 2.743-.901l30.876 3.145-7.344 7.344a2.96 2.96 0 0 0 0 4.184l26.205 26.206c.205.205.204.537 0 .742l-11.576 11.576c-.127.127-.272.154-.371.154s-.244-.027-.371-.154l-26.206-26.206a2.95 2.95 0 0 0-4.183 0l-7.394 7.416z"/></g></g><defs><clipPath id="A"><path fill="#fff" d="M0 0h1029v949H0z"/></clipPath><path id="B" d="M296.016 633.312H188.984a6.43 6.43 0 0 1-6.422-6.421v-59.938c0-1.181.96-2.141 2.141-2.141h113.453v-10.703a2.14 2.14 0 0 0-2.14-2.14H188.984a2.14 2.14 0 0 0-2.14 2.14 2.14 2.14 0 0 1-2.141 2.141c-1.181 0-2.141-.959-2.141-2.141a6.43 6.43 0 0 1 6.422-6.421h107.032a6.43 6.43 0 0 1 6.422 6.421v12.844c0 1.182-.96 2.141-2.141 2.141H186.844v57.797a2.14 2.14 0 0 0 2.14 2.14h107.032a2.14 2.14 0 0 0 2.14-2.14v-47.094a2.14 2.14 0 0 1 2.141-2.141c1.181 0 2.141.959 2.141 2.141v47.094a6.43 6.43 0 0 1-6.422 6.421z"/><path id="C" d="M206.109 594.781h-4.281a6.43 6.43 0 0 1-6.422-6.422v-4.281c0-3.54 2.882-6.422 6.422-6.422h4.281a6.43 6.43 0 0 1 6.422 6.422v4.281a6.43 6.43 0 0 1-6.422 6.422zm-4.281-12.843a2.14 2.14 0 0 0-2.14 2.14v4.281a2.14 2.14 0 0 0 2.14 2.141h4.281a2.14 2.14 0 0 0 2.141-2.141v-4.281a2.14 2.14 0 0 0-2.141-2.14h-4.281z"/><path id="D" d="M210.391 620.469h-12.844a2.14 2.14 0 1 1 0-4.281h12.844a2.14 2.14 0 1 1 0 4.281z"/></defs></svg>